<svg width="24" height="24" viewBox="0 0 24 24" fill="none" xmlns="http://www.w3.org/2000/svg">
<path d="M10 11C12.2091 11 14 9.20914 14 7C14 4.79086 12.2091 3 10 3C7.79086 3 6 4.79086 6 7C6 9.20914 7.79086 11 10 11Z" stroke="#45556C" stroke-width="2" stroke-linecap="round" stroke-linejoin="round"/>
<path d="M10.3 15H7C5.93913 15 4.92172 15.4214 4.17157 16.1716C3.42143 16.9217 3 17.9391 3 19V21" stroke="#45556C" stroke-width="2" stroke-linecap="round" stroke-linejoin="round"/>
<path d="M14.75 18.0526C15.0815 18.0526 15.3995 17.914 15.6339 17.6672C15.8683 17.4205 16 17.0858 16 16.7368C16 16.0105 15.75 15.6842 15.5 15.1579C14.964 14.03 15.388 13.0242 16.5 12C16.75 13.3158 17.5 14.5789 18.5 15.4211C19.5 16.2632 20 17.2632 20 18.3158C20 18.7996 19.9095 19.2787 19.7336 19.7257C19.5577 20.1727 19.2999 20.5788 18.9749 20.9209C18.6499 21.263 18.264 21.5344 17.8394 21.7196C17.4148 21.9047 16.9596 22 16.5 22C16.0404 22 15.5852 21.9047 15.1606 21.7196C14.736 21.5344 14.3501 21.263 14.0251 20.9209C13.7001 20.5788 13.4423 20.1727 13.2664 19.7257C13.0905 19.2787 13 18.7996 13 18.3158C13 17.7089 13.2165 17.1084 13.5 16.7368C13.5 17.0858 13.6317 17.4205 13.8661 17.6672C14.1005 17.914 14.4185 18.0526 14.75 18.0526Z" stroke="#45556C" stroke-width="2" stroke-linecap="round" stroke-linejoin="round"/>
</svg>
